<svg xmlns="http://www.w3.org/2000/svg" width="512" height="512" viewBox="0 0 512 512" version="1.1"><path d="M 235.061 139.087 C 201.629 143.413, 178.136 164.945, 164.698 203.576 C 152.949 237.351, 149.365 265.297, 150.305 315.810 C 151.003 353.320, 152.662 366.040, 159.566 386.825 C 169.009 415.259, 186.505 438.499, 204.500 446.513 C 211.286 449.535, 217.268 450.698, 233.076 452.068 C 246.636 453.244, 276.028 452.643, 278.722 451.136 C 279.760 450.555, 278.744 448.722, 274.542 443.596 C 271.489 439.871, 269.243 436.416, 269.551 435.917 C 269.859 435.419, 271.011 434.529, 272.111 433.940 C 273.857 433.006, 275.174 433.908, 282.479 441.038 L 290.847 449.206 294.674 447.969 C 299.816 446.307, 304 444.133, 304 443.122 C 304 442.667, 300.175 439.462, 295.500 436 C 290.825 432.538, 287 429.391, 287 429.007 C 287 427.988, 290.486 425, 291.676 425 C 292.237 425, 296.648 428.038, 301.480 431.750 C 306.311 435.462, 310.841 438.923, 311.545 439.440 C 312.903 440.436, 321 435.820, 321 434.050 C 321 433.543, 317.625 430.371, 313.500 427 C 309.375 423.629, 306 420.540, 306 420.136 C 306 418.812, 308.363 417, 310.091 417 C 311.020 417, 315.850 419.672, 320.823 422.937 L 329.865 428.874 336.682 421.677 C 341.677 416.403, 344.749 411.932, 348.173 404.952 C 364.771 371.114, 377.505 303.011, 374.060 266.500 C 371.882 243.421, 367.131 226.414, 357.019 205.500 C 339.795 169.878, 317.895 149.229, 289.725 142.050 C 275.234 138.358, 250.893 137.038, 235.061 139.087 M 225.500 174.507 C 213.721 176.176, 208.320 177.379, 197.500 180.745 C 185.398 184.509, 180.107 187.499, 178.426 191.522 C 176.765 195.498, 176.589 202.021, 178.009 207 C 179.936 213.756, 179.770 213.716, 191.177 210.192 C 204.810 205.981, 212.153 204.383, 226 202.615 C 261.586 198.073, 304.326 200.346, 328.481 208.067 C 333.421 209.646, 337.843 210.557, 338.308 210.092 C 338.773 209.627, 339.598 205.921, 340.141 201.857 C 341.804 189.412, 340.008 187.404, 322 181.576 C 303.571 175.612, 290.002 173.798, 261 173.421 C 242.772 173.185, 232.648 173.494, 225.500 174.507 M 198.407 220.031 C 184.228 222.842, 174.326 231.851, 169.946 245.927 C 166.313 257.597, 167.730 270.085, 174.027 281.900 C 177.944 289.249, 183.275 294.299, 190.880 297.865 C 195.902 300.220, 197.671 300.497, 207.500 300.472 C 216.585 300.448, 219.501 300.044, 224.247 298.151 C 231.765 295.152, 240.180 287.427, 243.444 280.527 C 251.198 264.136, 248.218 242.165, 236.675 230.622 C 231.275 225.222, 226.164 222.487, 217.781 220.511 C 210.978 218.906, 204.843 218.755, 198.407 220.031 M 289 221.362 C 272.207 225.010, 260.699 237.864, 257.868 256.133 C 255.743 269.852, 260.733 286.330, 270.084 296.476 C 283.716 311.265, 310.570 312.529, 328.598 299.231 C 347.178 285.525, 349.266 251.028, 332.594 233.204 C 322.442 222.350, 305.560 217.765, 289 221.362 M 196.243 228.711 C 189.381 230.733, 182.870 236.528, 179.306 243.786 C 176.799 248.890, 176.500 250.567, 176.500 259.500 C 176.500 268.480, 176.792 270.095, 179.362 275.329 C 184.615 286.026, 192.686 291.579, 204.597 292.691 C 218.296 293.971, 230.815 287.628, 236.482 276.537 C 239.280 271.062, 239.500 269.856, 239.500 259.992 C 239.500 250.127, 239.281 248.925, 236.482 243.455 C 229.638 230.078, 212.683 223.865, 196.243 228.711 M 293.121 229.108 C 281.580 231.066, 273.868 236.788, 269.120 246.914 C 266.791 251.880, 266.500 253.721, 266.500 263.500 C 266.500 274.026, 266.647 274.794, 269.918 281.313 C 274.479 290.402, 280.233 295.406, 289.289 298.156 C 301.820 301.963, 315.988 299.217, 325.099 291.218 C 335.918 281.719, 338.937 260.676, 331.567 246.133 C 325.129 233.427, 309.209 226.377, 293.121 229.108 M 201.589 257.077 C 198.639 260.583, 198.375 262.891, 200.463 266.928 C 204.372 274.487, 216 271.173, 216 262.500 C 216 254.473, 206.719 250.980, 201.589 257.077 M 297.888 258.500 C 292.464 261.448, 291.857 269.169, 296.747 273.016 C 303.711 278.494, 313.271 270.588, 309.442 262.518 C 307.999 259.477, 304.428 256.949, 301.703 257.040 C 301.041 257.062, 299.325 257.719, 297.888 258.500 M 172.384 304.537 C 170.793 306.964, 170.824 307.184, 173.090 309.596 C 174.393 310.983, 178.618 313.652, 182.480 315.527 C 193.998 321.120, 208.277 321.993, 221.824 317.935 C 225.772 316.752, 226.078 316.417, 225.800 313.577 C 225.461 310.105, 227.193 310.303, 208.380 311.585 C 199.661 312.179, 197.300 311.982, 191.320 310.166 C 187.503 309.006, 182.498 306.695, 180.199 305.029 C 175.121 301.350, 174.497 301.311, 172.384 304.537 M 339.515 305.976 C 338.391 307.794, 325.882 314.246, 319.674 316.209 C 314.783 317.756, 311.319 318.093, 303 317.831 L 292.500 317.500 292.190 320.183 C 291.808 323.491, 293.395 324.440, 301.897 325.981 C 313.602 328.104, 332.165 322.465, 342.456 313.662 C 346.395 310.292, 346.404 310.266, 344.683 307.639 C 342.925 304.956, 340.607 304.210, 339.515 305.976 M 240.250 317.099 C 238.064 317.912, 238 318.334, 238 331.880 C 238 361.408, 244.778 377, 257.613 377 C 265.650 377, 271.684 368.845, 273.941 354.934 C 275.083 347.897, 275.346 325.725, 274.358 319.750 C 273.791 316.322, 273.462 316, 270.519 316 L 267.300 316 266.708 333.750 C 266.051 353.430, 264.392 362.012, 260.483 365.952 C 258.446 368.005, 257.615 368.249, 255.370 367.452 C 249.683 365.433, 246.357 353.440, 245.343 331.298 C 244.940 322.489, 244.276 316.938, 243.596 316.679 C 242.993 316.450, 241.488 316.639, 240.250 317.099 M 128.454 334.272 C 120.813 340.701, 116.780 355.183, 120.839 361.613 C 122.766 364.665, 128.794 368.171, 134.250 369.412 C 136.676 369.964, 137 369.747, 137 367.570 C 137 363.753, 134.112 343.133, 132.734 337.104 L 131.500 331.709 128.454 334.272 M 387.971 332.750 C 387.647 341.159, 386.719 347.099, 384.593 354.362 C 380.757 367.472, 380.876 367.697, 389.500 363.613 C 400.479 358.413, 406.688 346.870, 402.721 339.030 C 400.936 335.503, 395.271 332, 391.352 332 C 389.508 332, 387.987 332.337, 387.971 332.750 M 314.924 369.637 C 313.489 371.199, 312.955 372.438, 313.614 372.675 C 314.227 372.896, 316.789 374.383, 319.307 375.979 C 324.890 379.521, 326.693 384.086, 325.163 390.816 C 324.033 395.791, 325.088 396.816, 329.717 395.243 C 332.339 394.351, 332.493 393.971, 332.387 388.688 C 332.237 381.284, 328.332 373.195, 323.186 369.629 C 318.480 366.368, 317.929 366.368, 314.924 369.637 M 183.023 374.598 C 178.646 378.552, 177.014 382.804, 177.006 390.275 C 177.001 394.491, 177.302 395.164, 179.584 396.032 C 181.005 396.572, 182.580 396.760, 183.084 396.448 C 183.588 396.137, 184 393.072, 184 389.637 C 184 383.813, 184.236 383.164, 187.500 380 C 191.160 376.453, 191.818 374.218, 189.800 372.200 C 188.027 370.427, 187.391 370.652, 183.023 374.598 M 307.500 387.622 C 295.163 392.190, 274.291 396.370, 255.750 397.985 C 236.446 399.666, 214.100 396.830, 200.407 390.960 C 194.546 388.448, 193 388.946, 193 393.345 C 193 396.489, 193.395 396.924, 198.075 398.937 C 210.785 404.405, 227.802 406.995, 251 406.993 C 273.422 406.991, 291.812 403.642, 307.250 396.747 C 314.157 393.662, 315.155 392.173, 313.393 387.582 C 312.677 385.715, 312.650 385.715, 307.500 387.622 M 242.414 473.750 C 243.198 481.414, 243.935 482.640, 246.827 481.093 C 249.669 479.572, 253.848 479.729, 259.219 481.559 C 261.736 482.416, 265.978 482.979, 268.647 482.809 L 273.500 482.500 273.792 474.750 L 274.084 467 257.904 467 L 241.724 467 242.414 473.750" stroke="none" fill="#e7e7e0" fill-rule="evenodd"/><path d="M 346.500 23.037 C 326.739 27.199, 302.471 36.615, 280.730 48.556 C 270.353 54.255, 245.492 70.395, 244.421 72.127 C 244.100 72.647, 242.123 71.307, 240.028 69.148 C 224.471 53.118, 176.852 34.254, 139.765 29.429 C 133.149 28.568, 127.353 28.247, 126.886 28.714 C 126.418 29.182, 126.948 35.625, 128.062 43.032 C 133.098 76.509, 137.429 115.497, 136.313 117.303 C 135.901 117.969, 117.939 118.066, 82.976 117.594 C 23.404 116.788, 28.998 115.986, 29.003 125.332 C 29.007 135.385, 35.546 155.284, 45.076 174.246 C 53.415 190.840, 62.149 204.244, 72.832 216.844 C 75.791 220.334, 77.826 223.545, 77.356 223.981 C 76.885 224.416, 70.650 229.379, 63.500 235.010 C 48.621 246.727, 39.526 255.288, 30.577 266 C 22.429 275.754, 13.026 289.905, 13.637 291.496 C 14.271 293.149, 22.247 297.359, 28.500 299.341 C 31.250 300.212, 39.083 301.848, 45.906 302.976 C 52.730 304.104, 61.055 305.711, 64.406 306.548 C 72.555 308.583, 89.001 314.178, 88.995 314.913 C 88.992 315.236, 84.150 320.675, 78.235 327 C 66.630 339.411, 59.798 348.474, 47.331 368 C 27.716 398.723, 26.543 401.697, 31.923 407.077 C 34.799 409.953, 35.022 410, 45.841 410 C 57.155 410, 96.493 408.474, 110.250 407.501 L 118 406.953 117.992 410.227 C 117.984 413.946, 113.592 431.814, 108.370 449.370 C 105.743 458.205, 105.130 461.529, 105.973 462.370 C 106.719 463.115, 112.454 463.496, 122.802 463.488 C 136.533 463.477, 139.377 463.184, 145.500 461.152 C 154.626 458.122, 164.350 452.981, 170.384 447.994 C 173.043 445.797, 175.406 444, 175.636 444 C 175.865 444, 179.079 446.505, 182.777 449.567 C 193.598 458.527, 209.620 465.050, 224.670 466.623 L 230.760 467.260 231.465 478.140 C 232.056 487.259, 232.469 489.181, 234.019 490.010 C 236.133 491.142, 281.366 491.701, 284.631 490.636 C 286.599 489.994, 286.818 488.992, 287.476 477.570 L 288.190 465.199 292.525 464.549 C 294.923 464.189, 305.731 459.517, 316.712 454.093 L 336.563 444.288 341.032 448.144 C 351.743 457.386, 389.100 468.952, 404.163 467.690 C 412.026 467.030, 419.876 463.569, 421.757 459.931 C 422.690 458.126, 422.990 449.803, 422.923 427.612 C 422.838 399.844, 422.962 397.603, 424.666 396.021 C 425.675 395.085, 433.700 390.125, 442.500 384.998 C 451.300 379.871, 460.975 373.777, 464 371.456 C 470.668 366.338, 480.509 356.126, 484.676 350 C 492.478 338.529, 500.351 318.333, 498.085 315.603 C 496.626 313.845, 491.782 312.629, 473.500 309.433 C 451.265 305.545, 437 300.117, 437 295.544 C 437 294.799, 438.913 293.063, 441.250 291.686 C 452.968 284.781, 473.347 261.406, 481.730 245.256 C 492.091 225.295, 496 209.280, 496 186.793 C 496 176.932, 495.622 172.022, 494.800 171.200 C 492.478 168.878, 485.940 169.999, 473.219 174.899 C 458.781 180.460, 446.075 184.408, 445.255 183.588 C 444.950 183.283, 448.330 175.039, 452.765 165.267 C 468.216 131.227, 471.751 119.543, 472.663 99.500 C 473.242 86.782, 472.341 82, 469.366 82 C 468.440 82, 457.741 86.262, 445.591 91.470 C 433.441 96.679, 419.483 102.332, 414.573 104.032 C 397.710 109.872, 376.468 114, 363.276 114 L 358 114 358.003 110.250 C 358.007 105.724, 359.288 98.140, 367.134 56.201 C 370.457 38.436, 372.926 23.248, 372.619 22.451 C 371.813 20.349, 357.769 20.664, 346.500 23.037 M 235.061 139.087 C 201.629 143.413, 178.136 164.945, 164.698 203.576 C 152.949 237.351, 149.365 265.297, 150.305 315.810 C 151.003 353.320, 152.662 366.040, 159.566 386.825 C 169.009 415.259, 186.505 438.499, 204.500 446.513 C 211.286 449.535, 217.268 450.698, 233.076 452.068 C 246.636 453.244, 276.028 452.643, 278.722 451.136 C 279.760 450.555, 278.744 448.722, 274.542 443.596 C 271.489 439.871, 269.243 436.416, 269.551 435.917 C 269.859 435.419, 271.011 434.529, 272.111 433.940 C 273.857 433.006, 275.174 433.908, 282.479 441.038 L 290.847 449.206 294.674 447.969 C 299.816 446.307, 304 444.133, 304 443.122 C 304 442.667, 300.175 439.462, 295.500 436 C 290.825 432.538, 287 429.391, 287 429.007 C 287 427.988, 290.486 425, 291.676 425 C 292.237 425, 296.648 428.038, 301.480 431.750 C 306.311 435.462, 310.841 438.923, 311.545 439.440 C 312.903 440.436, 321 435.820, 321 434.050 C 321 433.543, 317.625 430.371, 313.500 427 C 309.375 423.629, 306 420.540, 306 420.136 C 306 418.812, 308.363 417, 310.091 417 C 311.020 417, 315.850 419.672, 320.823 422.937 L 329.865 428.874 336.682 421.677 C 341.677 416.403, 344.749 411.932, 348.173 404.952 C 364.771 371.114, 377.505 303.011, 374.060 266.500 C 371.882 243.421, 367.131 226.414, 357.019 205.500 C 339.795 169.878, 317.895 149.229, 289.725 142.050 C 275.234 138.358, 250.893 137.038, 235.061 139.087 M 225.500 174.507 C 213.721 176.176, 208.320 177.379, 197.500 180.745 C 185.398 184.509, 180.107 187.499, 178.426 191.522 C 176.765 195.498, 176.589 202.021, 178.009 207 C 179.936 213.756, 179.770 213.716, 191.177 210.192 C 204.810 205.981, 212.153 204.383, 226 202.615 C 261.586 198.073, 304.326 200.346, 328.481 208.067 C 333.421 209.646, 337.843 210.557, 338.308 210.092 C 338.773 209.627, 339.598 205.921, 340.141 201.857 C 341.804 189.412, 340.008 187.404, 322 181.576 C 303.571 175.612, 290.002 173.798, 261 173.421 C 242.772 173.185, 232.648 173.494, 225.500 174.507 M 198.407 220.031 C 184.228 222.842, 174.326 231.851, 169.946 245.927 C 166.313 257.597, 167.730 270.085, 174.027 281.900 C 177.944 289.249, 183.275 294.299, 190.880 297.865 C 195.902 300.220, 197.671 300.497, 207.500 300.472 C 216.585 300.448, 219.501 300.044, 224.247 298.151 C 231.765 295.152, 240.180 287.427, 243.444 280.527 C 251.198 264.136, 248.218 242.165, 236.675 230.622 C 231.275 225.222, 226.164 222.487, 217.781 220.511 C 210.978 218.906, 204.843 218.755, 198.407 220.031 M 289 221.362 C 272.207 225.010, 260.699 237.864, 257.868 256.133 C 255.743 269.852, 260.733 286.330, 270.084 296.476 C 283.716 311.265, 310.570 312.529, 328.598 299.231 C 347.178 285.525, 349.266 251.028, 332.594 233.204 C 322.442 222.350, 305.560 217.765, 289 221.362 M 196.243 228.711 C 189.381 230.733, 182.870 236.528, 179.306 243.786 C 176.799 248.890, 176.500 250.567, 176.500 259.500 C 176.500 268.480, 176.792 270.095, 179.362 275.329 C 184.615 286.026, 192.686 291.579, 204.597 292.691 C 218.296 293.971, 230.815 287.628, 236.482 276.537 C 239.280 271.062, 239.500 269.856, 239.500 259.992 C 239.500 250.127, 239.281 248.925, 236.482 243.455 C 229.638 230.078, 212.683 223.865, 196.243 228.711 M 293.121 229.108 C 281.580 231.066, 273.868 236.788, 269.120 246.914 C 266.791 251.880, 266.500 253.721, 266.500 263.500 C 266.500 274.026, 266.647 274.794, 269.918 281.313 C 274.479 290.402, 280.233 295.406, 289.289 298.156 C 301.820 301.963, 315.988 299.217, 325.099 291.218 C 335.918 281.719, 338.937 260.676, 331.567 246.133 C 325.129 233.427, 309.209 226.377, 293.121 229.108 M 201.589 257.077 C 198.639 260.583, 198.375 262.891, 200.463 266.928 C 204.372 274.487, 216 271.173, 216 262.500 C 216 254.473, 206.719 250.980, 201.589 257.077 M 297.888 258.500 C 292.464 261.448, 291.857 269.169, 296.747 273.016 C 303.711 278.494, 313.271 270.588, 309.442 262.518 C 307.999 259.477, 304.428 256.949, 301.703 257.040 C 301.041 257.062, 299.325 257.719, 297.888 258.500 M 172.384 304.537 C 170.793 306.964, 170.824 307.184, 173.090 309.596 C 174.393 310.983, 178.618 313.652, 182.480 315.527 C 193.998 321.120, 208.277 321.993, 221.824 317.935 C 225.772 316.752, 226.078 316.417, 225.800 313.577 C 225.461 310.105, 227.193 310.303, 208.380 311.585 C 199.661 312.179, 197.300 311.982, 191.320 310.166 C 187.503 309.006, 182.498 306.695, 180.199 305.029 C 175.121 301.350, 174.497 301.311, 172.384 304.537 M 339.515 305.976 C 338.391 307.794, 325.882 314.246, 319.674 316.209 C 314.783 317.756, 311.319 318.093, 303 317.831 L 292.500 317.500 292.190 320.183 C 291.808 323.491, 293.395 324.440, 301.897 325.981 C 313.602 328.104, 332.165 322.465, 342.456 313.662 C 346.395 310.292, 346.404 310.266, 344.683 307.639 C 342.925 304.956, 340.607 304.210, 339.515 305.976 M 240.250 317.099 C 238.064 317.912, 238 318.334, 238 331.880 C 238 361.408, 244.778 377, 257.613 377 C 265.650 377, 271.684 368.845, 273.941 354.934 C 275.083 347.897, 275.346 325.725, 274.358 319.750 C 273.791 316.322, 273.462 316, 270.519 316 L 267.300 316 266.708 333.750 C 266.051 353.430, 264.392 362.012, 260.483 365.952 C 258.446 368.005, 257.615 368.249, 255.370 367.452 C 249.683 365.433, 246.357 353.440, 245.343 331.298 C 244.940 322.489, 244.276 316.938, 243.596 316.679 C 242.993 316.450, 241.488 316.639, 240.250 317.099 M 128.454 334.272 C 120.813 340.701, 116.780 355.183, 120.839 361.613 C 122.766 364.665, 128.794 368.171, 134.250 369.412 C 136.676 369.964, 137 369.747, 137 367.570 C 137 363.753, 134.112 343.133, 132.734 337.104 L 131.500 331.709 128.454 334.272 M 387.971 332.750 C 387.647 341.159, 386.719 347.099, 384.593 354.362 C 380.757 367.472, 380.876 367.697, 389.500 363.613 C 400.479 358.413, 406.688 346.870, 402.721 339.030 C 400.936 335.503, 395.271 332, 391.352 332 C 389.508 332, 387.987 332.337, 387.971 332.750 M 314.924 369.637 C 313.489 371.199, 312.955 372.438, 313.614 372.675 C 314.227 372.896, 316.789 374.383, 319.307 375.979 C 324.890 379.521, 326.693 384.086, 325.163 390.816 C 324.033 395.791, 325.088 396.816, 329.717 395.243 C 332.339 394.351, 332.493 393.971, 332.387 388.688 C 332.237 381.284, 328.332 373.195, 323.186 369.629 C 318.480 366.368, 317.929 366.368, 314.924 369.637 M 183.023 374.598 C 178.646 378.552, 177.014 382.804, 177.006 390.275 C 177.001 394.491, 177.302 395.164, 179.584 396.032 C 181.005 396.572, 182.580 396.760, 183.084 396.448 C 183.588 396.137, 184 393.072, 184 389.637 C 184 383.813, 184.236 383.164, 187.500 380 C 191.160 376.453, 191.818 374.218, 189.800 372.200 C 188.027 370.427, 187.391 370.652, 183.023 374.598 M 307.500 387.622 C 295.163 392.190, 274.291 396.370, 255.750 397.985 C 236.446 399.666, 214.100 396.830, 200.407 390.960 C 194.546 388.448, 193 388.946, 193 393.345 C 193 396.489, 193.395 396.924, 198.075 398.937 C 210.785 404.405, 227.802 406.995, 251 406.993 C 273.422 406.991, 291.812 403.642, 307.250 396.747 C 314.157 393.662, 315.155 392.173, 313.393 387.582 C 312.677 385.715, 312.650 385.715, 307.500 387.622 M 242.414 473.750 C 243.198 481.414, 243.935 482.640, 246.827 481.093 C 249.669 479.572, 253.848 479.729, 259.219 481.559 C 261.736 482.416, 265.978 482.979, 268.647 482.809 L 273.500 482.500 273.792 474.750 L 274.084 467 257.904 467 L 241.724 467 242.414 473.750" stroke="none" fill="#83b8e6" fill-rule="evenodd"/></svg>